<?xml version="1.0" encoding="UTF-8" standalone="no"?>
<!-- Created with Inkscape (http://www.inkscape.org/) -->

<svg
   xmlns:dc="http://purl.org/dc/elements/1.1/"
   xmlns:cc="http://creativecommons.org/ns#"
   xmlns:rdf="http://www.w3.org/1999/02/22-rdf-syntax-ns#"
   xmlns:svg="http://www.w3.org/2000/svg"
   xmlns="http://www.w3.org/2000/svg"
   version="1.1"
   width="744.09448"
   height="1052.3622"
   id="svg2">
  <defs
     id="defs4">
    <marker
       refX="0"
       refY="0"
       orient="auto"
       id="Arrow1Lend"
       style="overflow:visible">
      <path
         d="M 0,0 5,-5 -12.5,0 5,5 0,0 z"
         transform="matrix(-0.8,0,0,-0.8,-10,0)"
         id="path3776"
         style="fill-rule:evenodd;stroke:#000000;stroke-width:1pt" />
    </marker>
    <marker
       refX="0"
       refY="0"
       orient="auto"
       id="Arrow1Lstart"
       style="overflow:visible">
      <path
         d="M 0,0 5,-5 -12.5,0 5,5 0,0 z"
         transform="matrix(0.8,0,0,0.8,10,0)"
         id="path3773"
         style="fill-rule:evenodd;stroke:#000000;stroke-width:1pt" />
    </marker>
  </defs>
  <metadata
     id="metadata7">
    <rdf:RDF>
      <cc:Work
         rdf:about="">
        <dc:format>image/svg+xml</dc:format>
        <dc:type
           rdf:resource="http://purl.org/dc/dcmitype/StillImage" />
        <dc:title></dc:title>
      </cc:Work>
    </rdf:RDF>
  </metadata>
  <g
     id="layer1">
    <path
       d="m 339.41126,147.26549 a 183.84776,183.84776 0 0 1 183.84776,183.84776 l -183.84777,0 z"
       transform="matrix(0.9441711,0,0,0.94417109,4.5377034,-35.265376)"
       id="path2989"
       style="fill:#80b3ff;fill-opacity:1;stroke:#0033cb;stroke-width:3;stroke-miterlimit:4;stroke-opacity:1;stroke-dasharray:none;stroke-dashoffset:0" />
    <path
       d="m 323.8549,73.747217 0,203.646753"
       id="path3767"
       style="fill:none;stroke:#000000;stroke-width:1px;stroke-linecap:butt;stroke-linejoin:miter;stroke-opacity:1;marker-start:url(#Arrow1Lstart);marker-end:none" />
    <path
       d="m 527.85521,277.74752 -204.00031,0"
       id="path4425"
       style="fill:none;stroke:#000000;stroke-width:1px;stroke-linecap:butt;stroke-linejoin:miter;stroke-opacity:1;marker-start:url(#Arrow1Lstart);marker-end:none" />
    <text
       x="510.5311"
       y="271.00919"
       id="text4435"
       xml:space="preserve"
       style="font-size:28px;font-style:normal;font-weight:normal;line-height:125%;letter-spacing:0px;word-spacing:0px;fill:#000000;fill-opacity:1;stroke:none;font-family:Sans"><tspan
         x="510.5311"
         y="271.00919"
         id="tspan4437">x</tspan></text>
    <text
       x="297.69196"
       y="87.868538"
       id="text4439"
       xml:space="preserve"
       style="font-size:28px;font-style:normal;font-weight:normal;line-height:125%;letter-spacing:0px;word-spacing:0px;fill:#000000;fill-opacity:1;stroke:none;font-family:Sans"><tspan
         x="297.69196"
         y="87.868538"
         id="tspan4441">y</tspan></text>
    <path
       d="m 323.50135,100.95001 177.4838,0"
       id="path5610"
       style="fill:none;stroke:#000000;stroke-width:3;stroke-linecap:butt;stroke-linejoin:miter;stroke-miterlimit:4;stroke-opacity:1;stroke-dasharray:6, 3;stroke-dashoffset:0" />
    <path
       d="m 501.3387,103.30356 0,174.67888"
       id="path5612"
       style="fill:none;stroke:#000000;stroke-width:2.97619987;stroke-linecap:butt;stroke-linejoin:miter;stroke-miterlimit:4;stroke-opacity:1;stroke-dasharray:5.95239976, 2.97619988;stroke-dashoffset:0" />
    <path
       d="m 363.09933,147.08873 a 4.7729707,4.7729707 0 1 1 -9.54595,0 4.7729707,4.7729707 0 1 1 9.54595,0 z"
       transform="translate(88.034794,79.195959)"
       id="path5616"
       style="fill:#ff0000;fill-opacity:1;stroke:none" />
    <path
       d="m 363.09933,147.08873 a 4.7729707,4.7729707 0 1 1 -9.54595,0 4.7729707,4.7729707 0 1 1 9.54595,0 z"
       transform="translate(66.114484,-27.930718)"
       id="path5640"
       style="fill:#ff0000;fill-opacity:1;stroke:none" />
    <path
       d="m 363.09933,147.08873 a 4.7729707,4.7729707 0 1 1 -9.54595,0 4.7729707,4.7729707 0 1 1 9.54595,0 z"
       transform="translate(27.223611,-13.788582)"
       id="path5642"
       style="fill:#ff0000;fill-opacity:1;stroke:none" />
    <path
       d="m 363.09933,147.08873 a 4.7729707,4.7729707 0 1 1 -9.54595,0 4.7729707,4.7729707 0 1 1 9.54595,0 z"
       transform="translate(12.727922,49.851028)"
       id="path5644"
       style="fill:#ff0000;fill-opacity:1;stroke:none" />
    <path
       d="m 363.09933,147.08873 a 4.7729707,4.7729707 0 1 1 -9.54595,0 4.7729707,4.7729707 0 1 1 9.54595,0 z"
       transform="translate(-17.677669,71.771338)"
       id="path5646"
       style="fill:#ff0000;fill-opacity:1;stroke:none" />
    <path
       d="m 363.09933,147.08873 a 4.7729707,4.7729707 0 1 1 -9.54595,0 4.7729707,4.7729707 0 1 1 9.54595,0 z"
       transform="translate(132.93607,13.788582)"
       id="path5648"
       style="fill:#ff0000;fill-opacity:1;stroke:none" />
    <path
       d="m 363.09933,147.08873 a 4.7729707,4.7729707 0 1 1 -9.54595,0 4.7729707,4.7729707 0 1 1 9.54595,0 z"
       transform="translate(51.972348,47.376154)"
       id="path5650"
       style="fill:#ff0000;fill-opacity:1;stroke:none" />
    <path
       d="m 363.09933,147.08873 a 4.7729707,4.7729707 0 1 1 -9.54595,0 4.7729707,4.7729707 0 1 1 9.54595,0 z"
       transform="translate(66.468037,95.812969)"
       id="path5652"
       style="fill:#ff0000;fill-opacity:1;stroke:none" />
    <path
       d="m 363.09933,147.08873 a 4.7729707,4.7729707 0 1 1 -9.54595,0 4.7729707,4.7729707 0 1 1 9.54595,0 z"
       transform="translate(102.88404,-24.748737)"
       id="path5654"
       style="fill:#ff0000;fill-opacity:1;stroke:none" />
    <path
       d="m 363.09933,147.08873 a 4.7729707,4.7729707 0 1 1 -9.54595,0 4.7729707,4.7729707 0 1 1 9.54595,0 z"
       transform="translate(88.034794,79.195959)"
       id="path5656"
       style="fill:#ff0000;fill-opacity:1;stroke:none" />
    <path
       d="m 363.09933,147.08873 a 4.7729707,4.7729707 0 1 1 -9.54595,0 4.7729707,4.7729707 0 1 1 9.54595,0 z"
       transform="translate(88.034794,79.195959)"
       id="path5658"
       style="fill:#ff0000;fill-opacity:1;stroke:none" />
    <path
       d="m 363.09933,147.08873 a 4.7729707,4.7729707 0 1 1 -9.54595,0 4.7729707,4.7729707 0 1 1 9.54595,0 z"
       transform="translate(88.034794,79.195959)"
       id="path5660"
       style="fill:#ff0000;fill-opacity:1;stroke:none" />
    <path
       d="m 363.09933,147.08873 a 4.7729707,4.7729707 0 1 1 -9.54595,0 4.7729707,4.7729707 0 1 1 9.54595,0 z"
       transform="translate(74.599765,29.344931)"
       id="path5662"
       style="fill:#ff0000;fill-opacity:1;stroke:none" />
    <path
       d="m 363.09933,147.08873 a 4.7729707,4.7729707 0 1 1 -9.54595,0 4.7729707,4.7729707 0 1 1 9.54595,0 z"
       transform="translate(-2.4748739,9.1923878)"
       id="path5664"
       style="fill:#ff0000;fill-opacity:1;stroke:none" />
    <path
       d="m 363.09933,147.08873 a 4.7729707,4.7729707 0 1 1 -9.54595,0 4.7729707,4.7729707 0 1 1 9.54595,0 z"
       transform="translate(16.263456,89.449007)"
       id="path5666"
       style="fill:#ff0000;fill-opacity:1;stroke:none" />
    <path
       d="m 363.09933,147.08873 a 4.7729707,4.7729707 0 1 1 -9.54595,0 4.7729707,4.7729707 0 1 1 9.54595,0 z"
       transform="translate(117.02617,113.13708)"
       id="path5668"
       style="fill:#ff0000;fill-opacity:1;stroke:none" />
  </g>
</svg>
